<svg width="321" height="86" viewBox="0 0 321 86" fill="none" xmlns="http://www.w3.org/2000/svg">
<path d="M91.4 67.9L69.2 84L68.5 85.4L43.8 81.8L32.9 82.9C32.7667 82.9 29.1333 83.2667 22 84L22.5 83.9C21.9667 84.0333 20.9667 84.1333 19.5 84.2V83.9L-1.19209e-07 82.4V79.9L0.3 6.39999L45.3 5.3L45.2 5.49999L45.3 8.2L47.4 7.79999V7.6L77.5 3.4L65 40.6L91.4 67.9ZM48.6 11.4L44 12.3V13.2C45.2 12.9333 46.7 12.8333 48.5 12.9L48.6 11.4ZM48.4 14.4C46.6667 14.3333 45.2333 14.4667 44.1 14.8L44.2 17.5H48.2L48.4 14.4ZM48.1 19H44.3L44.4 21.7C45.6667 22.0333 46.8 22.2667 47.8 22.4L48.1 19ZM47.7 23.9C46.7 23.8333 45.6333 23.6333 44.5 23.3L44.6 26.8C45.5333 27.1333 46.4667 27.3333 47.4 27.4L47.7 23.9ZM47.3 28.9C46.4333 28.9 45.5667 28.7667 44.7 28.5L44.8 31.6H44.9C45.8333 32 46.5333 32.2667 47 32.4L47.3 28.9ZM46.9 33.9C46.3667 33.8333 45.7 33.6333 44.9 33.3L45.1 37H46.7L46.9 33.9ZM85.6 67.4L60.7 41.5L60.9 40.9L71.9 8L51 10.9L48.8 39.3H42.9L42.4 27.4C42.3333 27.4 42.2667 27.3667 42.2 27.3L42.3 27L41.6 9.19999L22.3 9.8L23.3 80.1L46.9 77.7L42.9 51.2H49.3L67.9 80.3L85.6 67.4ZM20.1 11.3L20 9.69999L4 10.1V13.6C5.66667 13.6 8.33333 13.1667 12 12.3C15.4 11.5 18.1 11.1667 20.1 11.3ZM20.1 17.2V12.8C18.1 12.6667 15.4333 13 12.1 13.8C8.36667 14.6667 5.66667 15.1333 4 15.2V19.3C6.13333 19.7 8.83333 19.5333 12.1 18.8C16.6333 17.8 19.3 17.2667 20.1 17.2ZM49.7 56.1L48.1 53.5H45.5L45.9 56.1H49.7ZM20.2 23.3V18.7C18.9333 18.8333 16.6667 19.2667 13.4 20C10.6 20.6667 8.33333 21 6.6 21C5.73333 21 4.86667 20.9333 4 20.8V24.3C5.46667 24.1 7.73333 23.8667 10.8 23.6C11.4667 23.5333 12.6 23.5333 14.2 23.6C17.1333 23.7333 19.1333 23.6333 20.2 23.3ZM53.1 61.5L50.6 57.5V57.6H46.2L46.7 61.5H53.1ZM56.3 66.4L54.1 63H47L47.6 66.8C49.3333 66.4667 51.9667 66.3333 55.5 66.4C55.6333 66.4 55.9 66.4 56.3 66.4ZM20.3 28.1L20.2 24.9C19 25.2333 16.9667 25.3333 14.1 25.2C12.5667 25.1333 11.4667 25.1 10.8 25.1C9.33333 25.3 7.06667 25.5667 4 25.9V30.5C5.73333 30.4333 8.4 30.0333 12 29.3C15.6 28.5 18.3667 28.1 20.3 28.1ZM59.9 72L57.3 68C56.5667 67.9333 55.9333 67.9 55.4 67.9C52 67.8333 49.4667 67.9667 47.8 68.3L48.3 71.4C48.8333 71.4 49.4667 71.4 50.2 71.4C54.6667 71.2667 57.9 71.4667 59.9 72ZM62.9 76.8L61.1 73.9L61 74C59.0667 73.1333 55.4667 72.7667 50.2 72.9C49.6 72.9 49.0333 72.9 48.5 72.9L48.7 74.5C49.5 74.5 50.4667 74.7333 51.6 75.2C53 75.8667 53.9 76.2333 54.3 76.3C55.7667 76.7 58.1667 76.8667 61.5 76.8C62.0333 76.8 62.5 76.8 62.9 76.8ZM20.4 34.4L20.3 29.6C18.3667 29.6 15.6 30 12 30.8C8.4 31.6 5.73333 32 4 32V36.4H4.5C11.5667 35.6667 16.8667 35 20.4 34.4ZM65.7 81.1L63.6 77.8V78.3C63.2 78.3 62.5333 78.3 61.6 78.3C58.0667 78.3667 55.5 78.2 53.9 77.8C52.8333 77.2667 51.2 76.6667 49 76L49.4 78.8L65.7 81.1ZM20.4 40.8V36C16.8667 36.6 11.6333 37.2333 4.7 37.9L4 38L3.9 40.9C6.43333 40.5 10.4333 40.4 15.9 40.6C17.7667 40.7333 19.2667 40.8 20.4 40.8ZM20.5 45.8V42.3C19.3 42.3 17.7667 42.2667 15.9 42.2C10.3667 41.9333 6.36667 42.0333 3.9 42.5V45.5C4.7 45.5667 6.63333 45.8 9.7 46.2C12.1 46.5333 14.0667 46.7 15.6 46.7C17.6667 46.7 19.3 46.4 20.5 45.8ZM20.6 52.3L20.5 47.5C19.1667 47.9667 17.5333 48.2 15.6 48.2C14.0667 48.2 12.1 48.0333 9.7 47.7C6.56667 47.3 4.63333 47.0667 3.9 47V53.4C5.23333 53.1333 7.23333 52.7333 9.9 52.2C11.3667 52 13.5667 52 16.5 52.2C18.3 52.3333 19.6667 52.3667 20.6 52.3ZM20.7 58.2L20.6 53.9C19.6667 53.9 18.2333 53.8333 16.3 53.7C12.9 53.4333 10 53.6333 7.6 54.3C6 54.7 4.76667 54.9333 3.9 55V59.9H5.2V60L20.7 58.2ZM20.7 63.8V59.7L5.1 61.5C4.9 61.6333 4.56667 61.6667 4.1 61.6V61.5C4.1 61.5 4.03333 61.5 3.9 61.5V65.2C7.63333 64.8 13.2333 64.3333 20.7 63.8ZM20.8 70.1V65.3C17 65.7 11.3667 66.2 3.9 66.8V68.7C5.23333 68.7667 8.03333 69.1 12.3 69.7C15.8333 70.2333 18.6667 70.3667 20.8 70.1ZM20.9 77.9L20.8 71.6C18.6667 71.8667 15.8333 71.7333 12.3 71.2C8.03333 70.6 5.2 70.3 3.8 70.3V75.6C5.86667 75.5333 8.73333 75.8667 12.4 76.6C16.3333 77.4 19.1667 77.8333 20.9 77.9ZM21 80.2V79.4C19.2 79.4 16.3333 79 12.4 78.2C8.73333 77.4 5.86667 77.0333 3.8 77.1V78.9L21 80.2ZM56.6 26.4C56.6 27 56.3333 27.3 55.8 27.3C55.2 27.3 54.9 27 54.9 26.4C54.9 25.8 55.2 25.5 55.8 25.5C56.3333 25.5 56.6 25.8 56.6 26.4ZM53.9 30.1C53.9 30.6333 53.6333 30.9 53.1 30.9C52.6333 30.9 52.4 30.6333 52.4 30.1C52.4 29.6333 52.6333 29.4 53.1 29.4C53.6333 29.4 53.9 29.6333 53.9 30.1ZM83.3 66.7C83.3 67.1667 83.0333 67.4 82.5 67.4C82.0333 67.4 81.8 67.1667 81.8 66.7C81.8 66.1667 82.0333 65.9 82.5 65.9C83.0333 65.9 83.3 66.1667 83.3 66.7ZM75.1 59.3C75.1 59.8333 74.8667 60.1 74.4 60.1C73.8667 60.1 73.6 59.8333 73.6 59.3C73.6 58.8333 73.8667 58.6 74.4 58.6C74.8667 58.6 75.1 58.8333 75.1 59.3ZM79 65.4C79 66.1333 78.6 66.5 77.8 66.5C77 66.5 76.6 66.1333 76.6 65.4C76.6 64.6 77 64.2 77.8 64.2C78.6 64.2 79 64.6 79 65.4ZM78.8 69.6C78.8 70.0667 78.5667 70.3 78.1 70.3C77.5667 70.3 77.3 70.0667 77.3 69.6C77.3 69.0667 77.5667 68.8 78.1 68.8C78.5667 68.8 78.8 69.0667 78.8 69.6ZM34.4 29.1C34.4 29.5667 34.1667 29.8 33.7 29.8C33.1667 29.8 32.9 29.5667 32.9 29.1C32.9 28.5667 33.1667 28.3 33.7 28.3C34.1667 28.3 34.4 28.5667 34.4 29.1ZM41.2 73.8C41.2 74.2667 40.9667 74.5 40.5 74.5C40.0333 74.5 39.8 74.2667 39.8 73.8C39.8 73.2667 40.0333 73 40.5 73C40.9667 73 41.2 73.2667 41.2 73.8ZM28.1 67.5C28.1 68.1667 27.7667 68.5 27.1 68.5C26.3667 68.5 26 68.1667 26 67.5C26 66.7667 26.3667 66.4 27.1 66.4C27.7667 66.4 28.1 66.7667 28.1 67.5ZM30.2 73.8C30.2 74.6 29.8 75 29 75C28.2 75 27.8 74.6 27.8 73.8C27.8 73 28.2 72.6 29 72.6C29.8 72.6 30.2 73 30.2 73.8ZM172.608 81.2H143.308C142.774 81.0667 140.474 80.3 136.408 78.9L136.108 81.1L116.908 82.7C116.908 82.7 106.374 81.7667 85.3078 79.9L82.1078 79.6L103.408 5.99999L127.408 4.9L140.208 5.2C140.208 5.2 144.474 5.3 153.008 5.49999L163.008 44.2C163.074 44.4 166.274 56.7333 172.608 81.2ZM124.108 8.6L106.308 9.6L105.808 11.3C106.341 11.3 107.141 11.2667 108.208 11.2C108.608 11.2 109.274 11.2333 110.208 11.3C111.608 11.3667 113.408 11.3 115.608 11.1C118.341 10.9 120.141 10.7667 121.008 10.7C122.208 10.7 123.108 10.6667 123.708 10.6L124.108 8.6ZM123.308 12.1C117.708 12.7 113.308 12.9333 110.108 12.8C109.708 12.8 109.108 12.8 108.308 12.8C107.574 12.8 106.608 12.8 105.408 12.8L104.508 15.9C107.974 15.5667 110.141 15.4333 111.008 15.5C114.608 15.7667 118.441 15.6667 122.508 15.2L123.308 12.1ZM168.308 77.9L150.408 8.7L126.108 8.2L109.408 78L116.908 79.1L133.108 77.9L135.608 57.8L140.908 56.9L143.908 77.9H168.308ZM122.208 16.8C118.141 16.8667 112.074 17.1 104.008 17.5L102.908 21.2C103.774 21.0667 105.041 20.9333 106.708 20.8C109.974 20.6667 114.841 20.5 121.308 20.3L122.208 16.8ZM121.008 21.8C117.408 21.8 112.041 22.0333 104.908 22.5C104.374 22.5667 103.574 22.6667 102.508 22.8L101.308 26.7C102.308 26.6333 103.808 26.6333 105.808 26.7H106.308C109.108 26.8333 113.274 26.6333 118.808 26.1L120.008 25.9L121.008 21.8ZM119.608 27.5L119.008 27.6C113.341 28.2 109.074 28.4333 106.208 28.3L105.708 28.2C103.574 28.1333 101.974 28.1667 100.908 28.3L99.7078 32.5C100.508 32.3667 101.708 32.1667 103.308 31.9C104.841 31.7 107.408 31.7 111.008 31.9C114.274 32.1 116.808 32 118.608 31.6L119.608 27.5ZM139.908 63L139.308 59.1L137.208 59.4L136.908 62.3C137.574 62.4333 138.574 62.6667 139.908 63ZM118.208 33.3C116.541 33.5667 113.908 33.6 110.308 33.4C106.708 33.2 103.941 33.3 102.008 33.7C100.808 33.9 99.8745 34.0333 99.2078 34.1L98.3078 37.3C101.108 37.0333 103.741 37.1667 106.208 37.7C108.008 38.1 110.541 38.2667 113.808 38.2C115.074 38.1333 116.174 38.1 117.108 38.1L118.208 33.3ZM140.608 68.2L140.108 64.6C139.374 64.4667 138.241 64.2333 136.708 63.9L136.308 67.5C137.241 67.6333 138.674 67.8667 140.608 68.2ZM141.408 73.3L140.908 69.8C139.841 69.6 138.241 69.3667 136.108 69.1L135.808 71.6C137.074 71.9333 138.941 72.5 141.408 73.3ZM116.708 39.7C115.708 39.7 114.774 39.7 113.908 39.7C110.508 39.7667 107.808 39.6 105.808 39.2C104.941 39 104.274 38.8667 103.808 38.8C102.274 38.6 100.274 38.6333 97.8078 38.9L96.7078 42.8C99.3745 42.5333 100.874 42.4 101.208 42.4C102.541 42.6667 104.574 43 107.308 43.4C109.708 43.5333 112.541 43.6 115.808 43.6L116.708 39.7ZM141.708 75.4V75C140.308 74.6 138.274 73.9667 135.608 73.1L135.408 74.5L141.508 76.7L141.708 75.4ZM115.408 45.1C110.141 45.1 106.408 44.8667 104.208 44.4C103.541 44.2667 102.508 44.1333 101.108 44C101.908 44 100.274 44.1333 96.2078 44.4L95.1078 48.4C95.9078 48.2667 97.1745 48.1333 98.9078 48C99.5078 48 101.508 48.3667 104.908 49.1C106.974 49.5 110.108 49.7 114.308 49.7L115.408 45.1ZM113.908 51.2C109.441 51.2 105.774 50.8667 102.908 50.2C101.174 49.7333 99.8411 49.5 98.9078 49.5C97.9745 49.6333 96.5411 49.7667 94.6078 49.9L93.4078 53.9C93.8745 53.9667 94.7078 54.0667 95.9078 54.2C96.9078 54.2667 97.7078 54.3 98.3078 54.3C100.174 54.2333 102.641 54.3333 105.708 54.6C109.374 54.9333 111.808 55.1 113.008 55.1L113.908 51.2ZM112.608 56.7C111.541 56.6333 109.174 56.4333 105.508 56.1C102.574 55.8333 100.208 55.7333 98.4078 55.8C97.2078 55.6667 95.4078 55.5667 93.0078 55.5L91.4078 61.1C92.0078 61.0333 92.8411 61.0333 93.9078 61.1C95.2411 61.2333 96.1078 61.3 96.5078 61.3C98.1745 61.3 100.708 61.2667 104.108 61.2C107.508 61.0667 110.008 61 111.608 61L112.608 56.7ZM111.208 62.5C109.741 62.5 107.341 62.5667 104.008 62.7C100.674 62.7667 98.1745 62.8 96.5078 62.8C96.2411 62.8 95.3078 62.7333 93.7078 62.6C92.5745 62.4667 91.6411 62.5 90.9078 62.7L89.8078 66.5C92.4745 66.4333 94.1745 66.4 94.9078 66.4C96.4411 66.4 98.9411 66.7 102.408 67.3C105.608 67.8333 108.108 68.0667 109.908 68L111.208 62.5ZM109.508 69.5C107.841 69.5667 105.374 69.3333 102.108 68.8C98.8411 68.2 96.4411 67.9 94.9078 67.9C95.3078 67.9 93.4411 67.9667 89.3078 68.1L88.1078 72.4C90.6411 72.6 94.4411 72.8667 99.5078 73.2C103.441 73.4667 106.408 73.7667 108.408 74.1L109.508 69.5ZM108.108 75.6C106.174 75.2667 103.541 75 100.208 74.8C96.4745 74.6 93.9078 74.4 92.5078 74.2C91.1078 74 89.4745 73.9 87.6078 73.9L87.0078 76.2L107.508 78L108.108 75.6ZM139.008 21.9C139.008 22.2333 138.841 22.4 138.508 22.4C138.174 22.4 138.008 22.2333 138.008 21.9C138.008 21.5 138.174 21.3 138.508 21.3C138.841 21.3 139.008 21.5 139.008 21.9ZM127.408 29.4C127.408 30.0667 127.074 30.4 126.408 30.4C125.674 30.4 125.308 30.0667 125.308 29.4C125.308 28.6667 125.674 28.3 126.408 28.3C127.074 28.3 127.408 28.6667 127.408 29.4ZM140.708 47L136.108 47.6L137.308 36.4L139.408 36L140.708 47ZM150.108 64.9C150.108 65.4333 149.841 65.7 149.308 65.7C148.841 65.7 148.608 65.4333 148.608 64.9C148.608 64.3667 148.841 64.1 149.308 64.1C149.841 64.1 150.108 64.3667 150.108 64.9ZM146.208 62.8C146.208 63.4667 145.874 63.8 145.208 63.8C144.474 63.8 144.108 63.4667 144.108 62.8C144.108 62.1333 144.474 61.8 145.208 61.8C145.874 61.8 146.208 62.1333 146.208 62.8ZM149.408 72C149.408 72.3333 149.241 72.5 148.908 72.5C148.574 72.5 148.408 72.3333 148.408 72C148.408 71.6667 148.574 71.5 148.908 71.5C149.241 71.5 149.408 71.6667 149.408 72ZM147.908 70.3C147.908 71.0333 147.541 71.4 146.808 71.4C146.141 71.4 145.808 71.0333 145.808 70.3C145.808 69.6333 146.141 69.3 146.808 69.3C147.541 69.3 147.908 69.6333 147.908 70.3ZM252.125 72.9L221.125 78.1L214.525 77.5L191.925 80.8L191.325 81.5L190.325 81L188.025 80C180.958 77.0667 175.292 75.6 171.025 75.6C170.358 75.6 169.758 75.6667 169.225 75.8L166.025 76.2C171.025 47.1333 173.525 28.9667 173.525 21.7C173.525 21.2333 173.458 20.5333 173.325 19.6C173.258 18.6667 173.225 17.9667 173.225 17.5C173.225 6.5 185.458 1.26666 209.925 1.79999C212.325 1.4 214.892 1.2 217.625 1.2C227.292 1.2 233.925 2.13333 237.525 4C243.392 7 246.325 13.3333 246.325 23C246.325 34.0667 243.225 41.1 237.025 44.1L252.125 72.9ZM203.725 4.9C194.525 5.1 187.625 6.3 183.025 8.5C184.892 8.83333 187.892 8.9 192.025 8.7C194.425 8.63333 196.158 8.6 197.225 8.6V8.9C198.758 7.36666 200.925 6.03333 203.725 4.9ZM247.225 70.5L232.825 43C232.492 42.3333 232.292 41.9667 232.225 41.9L233.525 41.8C235.192 41.6667 236.825 40.7667 238.425 39.1C241.558 35.8333 243.125 30.4667 243.125 23C243.125 15 240.858 9.73333 236.325 7.2C232.992 5.33333 226.758 4.4 217.625 4.4C208.692 4.4 202.292 6.3 198.425 10.1C198.625 12.0333 198.725 14.3667 198.725 17.1C198.725 30.9 196.392 51.0667 191.725 77.6L213.325 74.4L213.925 53.2L219.125 52.3L219.025 53.5C218.892 54.5667 218.825 55.7333 218.825 57C218.825 62.2 219.758 68.1 221.625 74.7L247.225 70.5ZM196.925 13.3C196.925 12.3 196.858 11.3667 196.725 10.5C195.725 10.4333 194.192 10.4667 192.125 10.6C186.792 10.8 182.992 10.5333 180.725 9.8C179.058 11 177.892 12.4 177.225 14C178.758 14.3333 180.525 14.4 182.525 14.2C184.992 14.1333 187.458 14.0667 189.925 14C193.258 13.9333 195.558 13.6 196.825 13L196.925 13.3ZM197.025 17.8C197.025 16.8 197.025 15.8333 197.025 14.9C195.358 15.5 192.992 15.8333 189.925 15.9C185.058 15.9667 182.625 16 182.625 16C180.358 16.2 178.358 16.1333 176.625 15.8C176.492 16.6 176.458 17.4333 176.525 18.3C179.058 17.7 183.058 17.5333 188.525 17.8C192.392 18 195.225 18 197.025 17.8ZM197.025 19.7C195.158 19.8333 192.292 19.8333 188.425 19.7C183.025 19.4333 179.125 19.5667 176.725 20.1C176.725 20.7667 176.725 21.6 176.725 22.6C178.192 22.6 180.358 22.7333 183.225 23C189.625 23.5333 194.192 23.4667 196.925 22.8C196.925 21.7333 196.958 20.7 197.025 19.7ZM196.825 24.7C193.958 25.3 189.358 25.3333 183.025 24.8C180.158 24.5333 178.025 24.4 176.625 24.4C176.558 25.2 176.492 26.0333 176.425 26.9C176.892 26.9 177.525 26.8667 178.325 26.8C179.192 26.6667 179.792 26.5667 180.125 26.5C181.458 26.5 184.292 26.8 188.625 27.4C192.292 28 194.958 28.0667 196.625 27.6C196.692 26.6 196.758 25.6333 196.825 24.7ZM217.225 54.4L215.525 54.7L215.425 58.9C216.025 58.9667 216.592 59.1 217.125 59.3C217.058 57.5 217.092 55.8667 217.225 54.4ZM196.425 29.5C194.425 29.9 191.725 29.8333 188.325 29.3C184.392 28.6333 181.692 28.3333 180.225 28.4C179.892 28.4 179.258 28.4667 178.325 28.6C177.458 28.7333 176.792 28.7667 176.325 28.7C176.192 29.9 176.058 31.1667 175.925 32.5C177.658 32.5 181.025 32.5667 186.025 32.7C190.292 32.8333 193.692 32.8667 196.225 32.8C196.292 31.6667 196.358 30.5667 196.425 29.5ZM217.825 65.2C217.558 63.8667 217.392 62.5667 217.325 61.3C216.658 61.0333 216.025 60.8333 215.425 60.7L215.325 65C216.125 64.9333 216.958 65 217.825 65.2ZM196.025 34.7C193.492 34.7 190.092 34.6667 185.825 34.6C180.692 34.4 177.292 34.3 175.625 34.3C175.558 35.3667 175.425 36.4333 175.225 37.5C176.158 37.5667 178.525 37.8333 182.325 38.3C185.192 38.5667 187.525 38.7 189.325 38.7C191.858 38.7 193.992 38.4333 195.725 37.9C195.792 36.8333 195.892 35.7667 196.025 34.7ZM218.825 70.8C218.558 69.6 218.325 68.4333 218.125 67.3C217.258 66.7667 216.292 66.6333 215.225 66.9L215.125 69.8C215.925 70.0667 217.158 70.4 218.825 70.8ZM219.825 74.7C219.692 74.1 219.525 73.4 219.325 72.6C218.592 72.6 217.192 72.3 215.125 71.7L215.025 74.3L219.825 74.7ZM195.425 39.9C193.692 40.3667 191.658 40.6 189.325 40.6C187.525 40.6 185.158 40.4333 182.225 40.1C178.358 39.6333 175.958 39.3667 175.025 39.3L174.925 40.4C180.058 42.2667 186.658 44.0333 194.725 45.7C194.992 43.7 195.225 41.7667 195.425 39.9ZM194.525 47.6C194.392 47.5333 194.192 47.4667 193.925 47.4L192.725 47.2V47.1C188.658 46.1667 182.625 44.5333 174.625 42.2L174.125 45.7C179.458 48.5667 183.958 50.1 187.625 50.3C189.092 50.2333 191.258 50.3667 194.125 50.7L194.525 47.6ZM193.925 52.6C192.725 52.4667 191.758 52.3333 191.025 52.2V52.1C190.825 52.1 190.458 52.1333 189.925 52.2C188.858 52.2 188.058 52.2 187.525 52.2C183.725 51.9333 179.158 50.4333 173.825 47.7L173.325 51.1C174.458 52.1 176.525 52.7667 179.525 53.1C181.792 53.3 184.092 53.4667 186.425 53.6C189.492 53.9333 191.825 54.5667 193.425 55.5L193.925 52.6ZM193.225 57.5C192.225 56.5 189.892 55.8333 186.225 55.5C183.958 55.3 181.692 55.1333 179.425 55C176.625 54.6667 174.492 54.0333 173.025 53.1L172.225 58.5C174.958 59.1667 179.092 60 184.625 61C186.158 61.2 188.558 61.7667 191.825 62.7L192.425 62.9C192.692 61.1 192.958 59.3 193.225 57.5ZM192.125 64.7L191.225 64.5C189.692 64.0333 187.425 63.4667 184.425 62.8C181.692 62.1333 177.525 61.3 171.925 60.3L171.425 63.2C172.625 63.6667 174.425 64.3 176.825 65.1C178.825 65.6333 181.292 66.0333 184.225 66.3C186.758 66.5 189.258 66.7 191.725 66.9L192.125 64.7ZM191.425 68.8C188.425 68.4667 185.425 68.1667 182.425 67.9C178.958 67.5 176.025 66.8333 173.625 65.9C172.558 65.4333 171.725 65.1333 171.125 65L170.425 69.3C177.292 69.2333 184.025 70.6333 190.625 73.5C190.892 72.0333 191.158 70.4667 191.425 68.8ZM190.425 74.8L190.225 75.3C183.692 72.3667 176.992 70.9667 170.125 71.1L169.925 72.5C174.992 72.1667 181.692 73.8 190.025 77.4C190.158 76.6 190.292 75.7333 190.425 74.8ZM228.225 18.9C228.225 19.5667 227.925 19.9 227.325 19.9C226.658 19.9 226.325 19.5667 226.325 18.9C226.325 18.3 226.658 18 227.325 18C227.925 18 228.225 18.3 228.225 18.9ZM226.425 24.7C226.425 26.9667 225.692 28.8333 224.225 30.3C222.425 32.1 219.825 33 216.425 33H215.525L216.225 21.7L216.825 21.6C218.158 21.3333 219.492 21.2 220.825 21.2C222.892 21.2 224.425 21.6 225.425 22.4C226.092 23 226.425 23.7667 226.425 24.7ZM218.925 35.4C218.925 36.0667 218.592 36.4 217.925 36.4C217.258 36.4 216.925 36.0667 216.925 35.4C216.925 34.7333 217.258 34.4 217.925 34.4C218.592 34.4 218.925 34.7333 218.925 35.4ZM226.025 62C226.025 62.4667 225.792 62.7 225.325 62.7C224.858 62.7 224.625 62.4667 224.625 62C224.625 61.5333 224.858 61.3 225.325 61.3C225.792 61.3 226.025 61.5333 226.025 62ZM203.225 51C203.225 51.4 203.025 51.6 202.625 51.6C202.225 51.6 202.025 51.4 202.025 51C202.025 50.6 202.225 50.4 202.625 50.4C203.025 50.4 203.225 50.6 203.225 51ZM202.425 59.6C202.425 60 202.225 60.2 201.825 60.2C201.425 60.2 201.225 60 201.225 59.6C201.225 59.2 201.425 59 201.825 59C202.225 59 202.425 59.2 202.425 59.6ZM199.725 57.3C199.725 57.9667 199.392 58.3 198.725 58.3C198.058 58.3 197.725 57.9667 197.725 57.3C197.725 56.6333 198.058 56.3 198.725 56.3C199.392 56.3 199.725 56.6333 199.725 57.3ZM199.725 63.9C199.725 64.5667 199.392 64.9 198.725 64.9C198.058 64.9 197.725 64.5667 197.725 63.9C197.725 63.3 198.058 63 198.725 63C199.392 63 199.725 63.3 199.725 63.9ZM199.825 66.3C199.825 66.7667 199.592 67 199.125 67C198.658 67 198.425 66.7667 198.425 66.3C198.425 65.8333 198.658 65.6 199.125 65.6C199.592 65.6 199.825 65.8333 199.825 66.3Z" fill="black"/>
<path d="M320.531 33.6L307.731 35.2C306.998 49.2 306.598 56.7 306.531 57.7C306.531 57.7 306.131 65.2333 305.331 80.3L281.631 82L252.831 84.6L253.231 62.7C253.231 62.7 253.365 55.4 253.631 40.8L245.131 42.5L250.031 14.4L265.431 7.5C266.098 7.16667 267.198 6.8 268.731 6.39999L294.131 3.6C294.331 3.53333 302.831 2.56666 319.631 0.699997L320.531 33.6ZM316.631 30.2L315.931 4.9L269.331 10.2L270.031 35.4L285.931 33.1L282.731 78.1L301.731 76.7L304.131 31.8L316.631 30.2ZM267.131 12.6L267.031 10.9L253.331 17.1L253.231 18C256.298 16.7333 260.931 14.9333 267.131 12.6ZM267.131 15.7V14.3C263.998 15.5667 259.265 17.3667 252.931 19.7L252.731 20.7C254.798 20.2333 257.898 19.2333 262.031 17.7C264.298 16.5 265.998 15.8333 267.131 15.7ZM267.331 20.9L267.231 17.2C266.298 17.3333 265.131 17.7667 263.731 18.5C261.798 19.5 260.631 20.1 260.231 20.3C258.498 20.7 255.898 21.4 252.431 22.4L252.131 24.5C253.265 24.1667 254.998 23.9 257.331 23.7L257.831 23.6C258.698 23.5333 261.865 22.6333 267.331 20.9ZM267.431 24.4L267.331 22.5C265.331 23.3 262.198 24.2 257.931 25.2H257.531C254.998 25.4 253.098 25.7333 251.831 26.2L251.631 27.2C252.565 26.9333 254.031 26.6667 256.031 26.4L257.231 26.2C259.498 25.6667 262.898 25.0667 267.431 24.4ZM283.431 35.8L267.831 38.1L267.731 37L257.431 38.6V40.5C257.631 40.5 259.365 40.3333 262.631 40H262.731C264.665 39.8 266.131 39.6667 267.131 39.6C270.131 39.4667 274.565 38.6333 280.431 37.1L283.431 36.4V35.8ZM267.531 29.3L267.431 25.9C265.231 26.3667 261.898 27 257.431 27.8L256.231 27.9C255.098 28.0333 253.465 28.4 251.331 29L250.831 32C251.565 31.7333 252.565 31.5667 253.831 31.5C255.365 31.3667 256.398 31.2333 256.931 31.1C259.465 30.5 262.998 29.9 267.531 29.3ZM283.331 38L280.831 38.6C277.698 39.4 275.465 39.9333 274.131 40.2C271.665 40.7333 269.331 41.0333 267.131 41.1C266.265 41.1667 264.865 41.3 262.931 41.5H262.731C261.531 41.5667 259.731 41.7667 257.331 42.1V44.7C260.398 43.4333 264.665 42.6333 270.131 42.3C276.665 41.8333 280.998 41.3333 283.131 40.8L283.331 38ZM282.931 42.4C281.198 42.8 276.865 43.2667 269.931 43.8C264.398 44.2 260.198 45.0667 257.331 46.4L257.231 48.4C259.965 48.4 264.198 48 269.931 47.2C275.465 46.4 279.731 46 282.731 46L282.931 42.4ZM267.731 34.7L267.631 30.9C264.698 31.4333 260.365 32.1 254.631 32.9C253.565 32.9667 252.231 33.3 250.631 33.9L250.531 33.8L249.831 37.7L257.431 36.2L267.731 34.7ZM282.631 47.6C279.698 47.6 275.465 47.9667 269.931 48.7C264.198 49.5 259.965 49.9333 257.231 50L257.131 54.4C257.865 54.3333 259.331 54.1667 261.531 53.9L263.731 53.7C268.465 53.2333 272.498 53 275.831 53C278.898 53 280.965 52.7333 282.031 52.2L282.231 52.6L282.631 47.6ZM282.131 53.8C281.065 54.2 279.698 54.4333 278.031 54.5C276.631 54.5 275.231 54.5333 273.831 54.6C269.965 54.7333 266.665 54.9333 263.931 55.2L261.731 55.4C260.665 55.5333 259.131 55.7333 257.131 56L257.031 58.7C259.231 58.1 262.531 57.4 266.931 56.6C268.131 56.6 270.631 56.3667 274.431 55.9C277.565 55.5 280.098 55.3333 282.031 55.4L282.131 53.8ZM281.931 56.9C280.065 56.9 277.565 57.0667 274.431 57.4C270.698 57.8667 268.231 58.1333 267.031 58.2C265.831 58.2667 264.131 58.6 261.931 59.2C259.731 59.8 258.098 60.1667 257.031 60.3L256.931 64.9C259.865 63.9667 262.631 63.3667 265.231 63.1C267.098 63.2333 269.865 63.2333 273.531 63.1C275.265 62.5667 277.965 61.9 281.631 61.1L281.931 56.9ZM281.531 62.6C279.798 63.2 277.165 63.8667 273.631 64.6C272.631 64.7333 271.165 64.7667 269.231 64.7C267.498 64.6333 266.198 64.6333 265.331 64.7C262.665 64.9 259.865 65.5333 256.931 66.6L256.831 70.3C257.831 70.1667 259.531 70.1333 261.931 70.2C266.198 70.3333 268.731 70 269.531 69.2L269.731 69H269.931C273.665 68.3333 277.398 67.7667 281.131 67.3L281.531 62.6ZM281.031 68.9C277.365 69.3667 273.831 69.9 270.431 70.5C269.231 71.4333 266.365 71.8333 261.831 71.7C259.431 71.6333 257.765 71.6667 256.831 71.8L256.731 75.7C256.798 75.7 256.931 75.7 257.131 75.7C258.998 75.7667 260.398 75.7667 261.331 75.7C262.131 75.6333 263.165 75.3667 264.431 74.9C265.965 74.3 267.031 73.9333 267.631 73.8C269.631 73.4 272.865 73.3333 277.331 73.6C278.665 73.6667 279.798 73.7 280.731 73.7L281.031 68.9ZM280.631 75.2C279.698 75.2 278.598 75.1667 277.331 75.1C271.731 74.8333 267.598 75.2333 264.931 76.3C264.265 76.5667 263.098 76.8667 261.431 77.2C260.498 77.2667 259.031 77.2667 257.031 77.2C256.965 77.2 256.865 77.2 256.731 77.2L256.631 80.5L280.331 78.3L280.631 75.2ZM308.331 19.4C308.331 19.8 308.131 20 307.731 20C307.331 20 307.131 19.8 307.131 19.4C307.131 19 307.331 18.8 307.731 18.8C308.131 18.8 308.331 19 308.331 19.4ZM276.131 17.1C276.131 17.5667 275.898 17.8 275.431 17.8C274.965 17.8 274.731 17.5667 274.731 17.1C274.731 16.6333 274.965 16.4 275.431 16.4C275.898 16.4 276.131 16.6333 276.131 17.1ZM279.631 24.5C279.631 25.0333 279.398 25.3 278.931 25.3C278.465 25.3 278.231 25.0333 278.231 24.5C278.231 24.0333 278.465 23.8 278.931 23.8C279.398 23.8 279.631 24.0333 279.631 24.5ZM291.531 38.8C291.531 39.2667 291.298 39.5 290.831 39.5C290.298 39.5 290.031 39.2667 290.031 38.8C290.031 38.3333 290.298 38.1 290.831 38.1C291.298 38.1 291.531 38.3333 291.531 38.8ZM275.231 24.9C275.231 25.5667 274.898 25.9 274.231 25.9C273.565 25.9 273.231 25.5667 273.231 24.9C273.231 24.2333 273.565 23.9 274.231 23.9C274.898 23.9 275.231 24.2333 275.231 24.9ZM296.631 50C296.631 50.6 296.331 50.9 295.731 50.9C295.065 50.9 294.731 50.6 294.731 50C294.731 49.3333 295.065 49 295.731 49C296.331 49 296.631 49.3333 296.631 50ZM290.731 56C290.731 56.5333 290.498 56.8 290.031 56.8C289.565 56.8 289.331 56.5333 289.331 56C289.331 55.5333 289.565 55.3 290.031 55.3C290.498 55.3 290.731 55.5333 290.731 56ZM288.631 53.7C288.631 54.3667 288.298 54.7 287.631 54.7C287.031 54.7 286.731 54.3667 286.731 53.7C286.731 53.0333 287.031 52.7 287.631 52.7C288.298 52.7 288.631 53.0333 288.631 53.7ZM297.931 67.8C297.931 68.3333 297.631 68.6 297.031 68.6C296.498 68.6 296.231 68.3333 296.231 67.8C296.231 67.2 296.498 66.9 297.031 66.9C297.631 66.9 297.931 67.2 297.931 67.8ZM290.031 61.3C290.031 61.9667 289.698 62.3 289.031 62.3C288.365 62.3 288.031 61.9667 288.031 61.3C288.031 60.6333 288.365 60.3 289.031 60.3C289.698 60.3 290.031 60.6333 290.031 61.3Z" fill="#FF7245"/>
</svg>
