<svg width="25" height="12" viewBox="0 0 25 12" fill="none" xmlns="http://www.w3.org/2000/svg">
<path d="M2.91211 1.7793C2.36133 1.97461 1.94531 2.27734 1.66406 2.6875C1.38672 3.09375 1.24805 3.5918 1.24805 4.18164C1.24805 4.43945 1.27539 4.67578 1.33008 4.89062C1.38867 5.10156 1.46875 5.27344 1.57031 5.40625C1.05469 5.40625 0.675781 5.30273 0.433594 5.0957C0.191406 4.88477 0.0703125 4.55469 0.0703125 4.10547C0.0703125 3.55078 0.238281 3.02539 0.574219 2.5293C0.894531 2.05664 1.33008 1.67578 1.88086 1.38672C2.44727 1.09766 3.05859 0.953125 3.71484 0.953125C3.89844 0.953125 4.05859 0.966797 4.19531 0.994141C4.33594 1.01758 4.49219 1.05859 4.66406 1.11719L6.11133 7.53906L7.45312 1.02344H8.61914L6.66211 10H5.00391L3.61523 4.04688L2.24414 10H1.10742L2.91211 1.7793ZM10.9277 1.7793C10.377 1.97461 9.96094 2.27734 9.67969 2.6875C9.40234 3.09375 9.26367 3.5918 9.26367 4.18164C9.26367 4.43945 9.29102 4.67578 9.3457 4.89062C9.4043 5.10156 9.48438 5.27344 9.58594 5.40625C9.07031 5.40625 8.69141 5.30273 8.44922 5.0957C8.20703 4.88477 8.08594 4.55469 8.08594 4.10547C8.08594 3.55078 8.25391 3.02539 8.58984 2.5293C8.91016 2.05664 9.3457 1.67578 9.89648 1.38672C10.4629 1.09766 11.0742 0.953125 11.7305 0.953125C11.9141 0.953125 12.0742 0.966797 12.2109 0.994141C12.3516 1.01758 12.5078 1.05859 12.6797 1.11719L14.127 7.53906L15.4688 1.02344H16.6348L14.6777 10H13.0195L11.6309 4.04688L10.2598 10H9.12305L10.9277 1.7793Z" fill="black"/>
<path d="M18.6445 11.3652C18.4258 11.3652 18.2344 11.3555 18.0703 11.3359C17.9062 11.3164 17.752 11.2695 17.6074 11.1953C17.2285 11.0117 17.0391 10.6445 17.0391 10.0938C17.0391 9.82812 17.0801 9.50977 17.1621 9.13867C17.248 8.76758 17.3691 8.36719 17.5254 7.9375C17.8691 6.99219 18.2949 6.08398 18.8027 5.21289C18.4043 5.23633 18.0879 5.29688 17.8535 5.39453C17.623 5.48828 17.4707 5.63477 17.3965 5.83398C17.4316 5.83398 17.4668 5.875 17.502 5.95703C17.5371 6.03906 17.5547 6.12305 17.5547 6.20898C17.5547 6.34961 17.4902 6.46289 17.3613 6.54883C17.2324 6.63477 17.0723 6.67773 16.8809 6.67773C16.666 6.67773 16.4902 6.61914 16.3535 6.50195C16.209 6.38086 16.1367 6.20703 16.1367 5.98047C16.1367 5.78125 16.1973 5.5918 16.3184 5.41211C16.4395 5.22852 16.6113 5.07031 16.834 4.9375C17.0605 4.80078 17.3223 4.69531 17.6191 4.62109C17.9199 4.54297 18.2422 4.50391 18.5859 4.50391C18.7539 4.50391 18.9629 4.51562 19.2129 4.53906C19.8848 3.48047 20.5566 2.65039 21.2285 2.04883C22.0098 1.34961 22.7285 1 23.3848 1C23.7754 1 24.0918 1.05664 24.334 1.16992L22.4531 10H20.7246L21.6445 5.64648C21.3555 5.51367 21.084 5.41406 20.8301 5.34766C20.5801 5.28125 20.3164 5.23633 20.0391 5.21289C19.5859 6.19336 19.2148 7.19531 18.9258 8.21875C18.6289 9.24609 18.4805 10.0723 18.4805 10.6973C18.4805 11.0059 18.5352 11.2285 18.6445 11.3652ZM22.4531 1.84961C22.1055 2.03711 21.7402 2.39062 21.3574 2.91016C20.9824 3.42578 20.627 4.02148 20.291 4.69727C20.8379 4.80273 21.3262 4.94141 21.7559 5.11328L22.4531 1.84961Z" fill="#FD7144"/>
</svg>
